<?xml version="1.0" encoding="UTF-8"?>
<svg width="120px" height="120px" viewBox="0 0 120 120" version="1.1" xmlns="http://www.w3.org/2000/svg" xmlns:xlink="http://www.w3.org/1999/xlink">
    <!-- Generator: Sketch 40.3 (33839) - http://www.bohemiancoding.com/sketch -->
    <title>店铺转让</title>
    <desc>Created with Sketch.</desc>
    <defs></defs>
    <g id="Page-1" stroke="none" stroke-width="1" fill="none" fill-rule="evenodd">
        <g id="店铺转让" transform="translate(-53.000000, -33.000000)">
            <g transform="translate(53.000000, 33.000000)">
                <circle id="Oval-6-Copy-2" fill="#75C07D" cx="60" cy="60" r="60"></circle>
                <g transform="translate(29.245902, 44.214286)">
                    <rect id="Rectangle-26" fill="#FCDFB5" x="0" y="0" width="47.9032258" height="37.5117204"></rect>
                    <rect id="Rectangle-26" fill="#FE6227" x="0" y="28.41797" width="47.9032258" height="9.09375041"></rect>
                    <rect id="Rectangle-27" fill="#29A9D0" x="5.7483871" y="5.683594" width="16.2870968" height="31.8281264"></rect>
                    <rect id="Rectangle-30" fill="#2394BC" x="5.7483871" y="19.3242196" width="8.62258065" height="18.1875008"></rect>
                    <rect id="Rectangle-28" fill="#D8D8D8" x="26.8258065" y="7.95703161" width="18.2032258" height="19.3242196"></rect>
                </g>
                <g id="Group-8" transform="translate(26.000000, 35.000000)">
                    <g id="Group-7" opacity="0.306499094" transform="translate(0.000000, 1.023810)" fill="#787878">
                        <path d="M8.31036624,17.4054077 C8.12621521,19.6667886 6.25478533,21.5 4.123759,21.5 C1.98838763,21.5 0.438679049,19.6669221 0.684227538,17.4054077 L3.38029904,0 L10.3324199,0 L8.31036624,17.4054077 Z" id="Rectangle-29"></path>
                        <path d="M38.8149211,17.4054077 C38.8763047,19.6667886 37.1862406,21.5 35.0552143,21.5 C32.9198429,21.5 31.1887823,19.6669221 31.1887823,17.4054077 L31.1887823,0 L38.1409032,0 L38.8149211,17.4054077 Z" id="Rectangle-29-Copy-4"></path>
                        <path d="M23.5626436,17.4054077 C23.50126,19.6667886 21.720513,21.5 19.5894866,21.5 C17.4541153,21.5 15.8137307,19.6669221 15.9365049,17.4054077 L17.2845407,0 L24.2366615,0 L23.5626436,17.4054077 Z" id="Rectangle-29-Copy-2"></path>
                        <path d="M54.0671985,17.4054077 C54.2513495,19.6667886 52.6519682,21.5 50.5209419,21.5 C48.3855705,21.5 46.563834,19.6669221 46.4410598,17.4054077 L45.093024,0 L52.0451448,0 L54.0671985,17.4054077 Z" id="Rectangle-29-Copy-5"></path>
                        <path d="M15.9365049,17.4054077 C15.8137376,19.6667886 13.9876491,21.5 11.8566228,21.5 C9.72125144,21.5 8.12620487,19.6669221 8.31036624,17.4054077 L10.3324199,0 L17.2845407,0 L15.9365049,17.4054077 Z" id="Rectangle-29-Copy"></path>
                        <path d="M46.4410598,17.4054077 C46.5638271,19.6667886 44.9191044,21.5 42.7880781,21.5 C40.6527067,21.5 38.8763082,19.6669221 38.8149211,17.4054077 L38.1409032,0 L45.093024,0 L46.4410598,17.4054077 Z" id="Rectangle-29-Copy-6"></path>
                        <path d="M31.1887823,17.4054077 C31.1887823,19.6667886 29.4533768,21.5 27.3223504,21.5 C25.1869791,21.5 23.5012565,19.6669221 23.5626436,17.4054077 L24.2366615,0 L31.1887823,0 L31.1887823,17.4054077 Z" id="Rectangle-29-Copy-3"></path>
                    </g>
                    <g id="Group-7">
                        <path d="M8.31036624,17.4054077 C8.12621521,19.6667886 6.25478533,21.5 4.123759,21.5 C1.98838763,21.5 0.438679049,19.6669221 0.684227538,17.4054077 L3.38029904,0 L10.3324199,0 L8.31036624,17.4054077 Z" id="Rectangle-29" fill="#DD2036"></path>
                        <path d="M38.8149211,17.4054077 C38.8763047,19.6667886 37.1862406,21.5 35.0552143,21.5 C32.9198429,21.5 31.1887823,19.6669221 31.1887823,17.4054077 L31.1887823,0 L38.1409032,0 L38.8149211,17.4054077 Z" id="Rectangle-29-Copy-4" fill="#DD2036"></path>
                        <path d="M23.5626436,17.4054077 C23.50126,19.6667886 21.720513,21.5 19.5894866,21.5 C17.4541153,21.5 15.8137307,19.6669221 15.9365049,17.4054077 L17.2845407,0 L24.2366615,0 L23.5626436,17.4054077 Z" id="Rectangle-29-Copy-2" fill="#DD2036"></path>
                        <path d="M54.0671985,17.4054077 C54.2513495,19.6667886 52.6519682,21.5 50.5209419,21.5 C48.3855705,21.5 46.563834,19.6669221 46.4410598,17.4054077 L45.093024,0 L52.0451448,0 L54.0671985,17.4054077 Z" id="Rectangle-29-Copy-5" fill="#DD2036"></path>
                        <path d="M15.9365049,17.4054077 C15.8137376,19.6667886 13.9876491,21.5 11.8566228,21.5 C9.72125144,21.5 8.12620487,19.6669221 8.31036624,17.4054077 L10.3324199,0 L17.2845407,0 L15.9365049,17.4054077 Z" id="Rectangle-29-Copy" fill="#FCFEFB"></path>
                        <path d="M46.4410598,17.4054077 C46.5638271,19.6667886 44.9191044,21.5 42.7880781,21.5 C40.6527067,21.5 38.8763082,19.6669221 38.8149211,17.4054077 L38.1409032,0 L45.093024,0 L46.4410598,17.4054077 Z" id="Rectangle-29-Copy-6" fill="#FCFEFB"></path>
                        <path d="M31.1887823,17.4054077 C31.1887823,19.6667886 29.4533768,21.5 27.3223504,21.5 C25.1869791,21.5 23.5012565,19.6669221 23.5626436,17.4054077 L24.2366615,0 L31.1887823,0 L31.1887823,17.4054077 Z" id="Rectangle-29-Copy-3" fill="#FCFEFB"></path>
                    </g>
                </g>
                <g id="Group-9" transform="translate(71.278689, 43.190476)">
                    <rect id="Rectangle-31" fill="#7E0B08" x="9.73770492" y="18.4285714" width="3.24590164" height="20.3600006" rx="1"></rect>
                    <ellipse id="Oval-8" fill="#8C8C36" cx="11.3606557" cy="10.75" rx="11.3606557" ry="10.75"></ellipse>
                    <ellipse id="Oval-8" fill="#A7B637" cx="10.2786885" cy="10.75" rx="10.2786885" ry="9.72619048"></ellipse>
                </g>
            </g>
        </g>
    </g>
</svg>