<?xml version="1.0" encoding="UTF-8"?>
<svg width="120px" height="120px" viewBox="0 0 120 120" version="1.1" xmlns="http://www.w3.org/2000/svg" xmlns:xlink="http://www.w3.org/1999/xlink">
    <!-- Generator: Sketch 40.3 (33839) - http://www.bohemiancoding.com/sketch -->
    <title>招聘信息</title>
    <desc>Created with Sketch.</desc>
    <defs>
        <path d="M55.4704076,56.5483913 C55.3550339,55.4619955 55.1817332,54.57186 54.9506015,53.8787532 C54.5344492,52.6765034 53.8296225,51.7059617 52.835641,50.9661674 C51.8417556,50.2267574 50.7091528,49.6140568 49.4377364,49.1286418 C48.1665122,48.6433229 46.8489848,48.2271706 45.4854424,47.8806653 C44.1217079,47.5337756 42.8620115,47.1293432 41.7060649,46.667272 C40.4579923,46.1586094 39.4641069,45.5808763 38.7243126,44.9335923 C37.9848065,44.2862123 37.4529923,43.604345 37.1296385,42.8877984 C36.8059965,42.1713478 36.621168,41.4548973 36.5748649,40.7383507 C36.5285617,40.0219001 36.5748649,39.3166891 36.7135823,38.6234862 C36.8059965,38.0687126 36.9446179,37.5947293 37.1296385,37.2018247 C37.3146591,36.8090161 37.5454065,36.4736542 37.8228414,36.1962194 C38.1002763,35.9191688 38.4240143,35.6529735 38.7937674,35.3989784 C39.1636165,35.1448873 39.5565211,34.8328691 39.9726734,34.46302 C40.3423304,34.139282 40.6775001,33.6886424 40.9778944,33.1108133 C41.278673,32.5330801 41.544388,31.9436271 41.7755197,31.3425503 C42.0067474,30.6490592 42.2146314,29.9326086 42.399556,29.1931025 C42.8620115,29.0543851 43.3011232,28.7999097 43.7172755,28.4300606 C44.0870286,28.1067068 44.4220062,27.6559712 44.7224005,27.0779499 C45.0231791,26.5001207 45.2426869,25.7258392 45.3814044,24.7552015 C45.4738186,24.0153111 45.4621948,23.3913709 45.346725,22.8827083 C45.230967,22.3744299 45.080914,21.9582776 44.8959894,21.6346357 C44.7110649,21.2648826 44.4564934,20.9874478 44.1332357,20.8024271 C44.1790585,18.9532777 44.0637809,17.1042243 43.786346,15.2551709 C43.5551183,13.6834563 43.1506859,12.0077036 42.5729528,10.228105 C41.9951236,8.44821816 41.1282357,6.81867261 39.9726734,5.33946831 C39.4641069,4.69218435 38.7937674,4.05642814 37.9616549,3.4324879 C37.1297346,2.80835552 36.1820563,2.2420541 35.11862,1.73367969 C34.055472,1.22520922 32.9112453,0.809056927 31.6861321,0.485318879 C30.461115,0.16158083 29.1783631,0 27.837588,0 C26.774536,0 25.6764204,0.0924142441 24.5439136,0.277434862 C23.4112147,0.462455479 22.2902357,0.786001399 21.1808805,1.24797655 C20.0712371,1.71043203 18.9736018,2.34609217 17.8872061,3.15495697 C16.8008104,3.96391783 15.8185488,4.99248261 14.9400371,6.24084342 C14.0153182,7.58133028 13.3105876,9.0838783 12.8251726,10.7480071 C12.3397577,12.412136 12.0045879,13.9838506 11.8195673,15.4634392 C11.5884356,17.2200783 11.4959253,18.9767175 11.5421325,20.7332606 C11.1722834,21.195716 10.8951367,21.6809388 10.7102121,22.1895054 C10.5253836,22.6515766 10.398194,23.1947264 10.3287392,23.8190509 C10.2594765,24.4431833 10.3404591,25.147914 10.5715908,25.9340114 C10.8027224,26.7196286 11.0798691,27.3207054 11.403415,27.7368577 C11.7271531,28.1529139 12.0274513,28.4762677 12.3049823,28.7073994 C12.6286242,28.9385311 12.9522662,29.1005922 13.2759082,29.1930065 C13.5070399,29.9325126 13.7382676,30.6489631 13.9691111,31.3424542 C14.2002428,31.9436271 14.4547182,32.5329841 14.732153,33.1107172 C15.0092036,33.6885464 15.3328456,34.139282 15.7026947,34.462924 C16.4886961,35.1098237 17.1935229,35.7342442 17.8175592,36.3349368 C18.4415955,36.9361097 18.800205,37.7911816 18.892235,38.900825 C18.9385382,39.5940279 18.9617858,40.241408 18.9617858,40.8423887 C18.9617858,41.4430813 18.8576517,42.0209105 18.6497677,42.5756842 C18.4414994,43.13065 18.0720346,43.6855197 17.5400282,44.2399091 C17.0085022,44.7947788 16.2574684,45.3725119 15.2865424,45.9735888 C14.0846769,46.7594941 12.6862631,47.3602828 11.0913008,47.776339 C9.49662674,48.1924913 7.94796767,48.6549468 6.44541965,49.163129 C4.9429677,49.6716956 3.63706413,50.3652827 2.52770894,51.2433141 C1.41796949,52.1218258 0.724862658,53.4161056 0.447427797,55.1265376 C-0.0149316181,58.0853304 -0.118969691,60.512117 0.135409642,62.4075696 C0.389500781,64.3028301 0.777217922,65.4271714 1.27963632,65.8053782 L54.32474,65.8053782 C54.6619271,65.3056496 55.239276,63.8638145 55.4009529,62.8928885 C55.5625337,61.9222507 55.6437084,60.8933978 55.6437084,59.8073863 C55.6440926,58.7210866 55.5862617,57.634787 55.4704076,56.5483913 L55.4704076,56.5483913 Z" id="path-1"></path>
        <path d="M6.72246581,20.3303058 C6.26073795,20.8376231 5.78700843,21.2742063 5.30185332,21.640524 C4.81679423,22.0066075 4.45876071,22.1900005 4.22775276,22.1900005 C3.99684082,22.1900005 3.64994484,22.0066075 3.18821698,21.640524 C2.72600905,21.2742063 2.25227952,20.8376231 1.76722043,20.3303058 C1.28216134,19.8231057 0.866231812,19.3157885 0.519911911,18.8084713 C0.173207957,18.3016225 0,17.9070815 0,17.6251996 C0,17.174329 0.0810352083,16.4842042 0.242625559,15.5543569 C0.404215909,14.6241582 0.589041473,13.6379813 0.797198264,12.5954749 C1.004971,11.5529685 1.22426533,10.5525042 1.4553693,9.59466778 C1.68637725,8.63648 1.87129883,7.90419594 2.009942,7.39699583 C1.50155169,6.88967861 1.07410056,6.35437228 0.727588636,5.79072552 C0.381172722,5.22696165 0.207964765,4.77609108 0.207964765,4.4378796 C0.207964765,3.98736037 0.323180701,3.5364898 0.554380679,3.08550213 C0.785388631,2.63474867 1.03943977,2.24009054 1.31672612,1.9023475 C1.64019486,1.50768936 2.03279316,1.11326545 2.49500109,0.718724429 C2.49500109,0.718724429 3.85405772,0 4.22775276,0 C5.00909747,0 5.96012037,0.718724429 5.96012037,0.718724429 C6.3760499,1.11326545 6.7686482,1.50768936 7.13839534,1.9023475 C7.46186408,2.24009054 7.75086406,2.64891889 8.00472317,3.12777856 C8.25877431,3.60710667 8.38579988,4.07179613 8.38579988,4.52266669 C8.38579988,5.08643056 8.22411351,5.63579 7.90064477,6.17109632 C7.57717603,6.70628554 7.18457773,7.19931543 6.7223698,7.65030311 C6.86101298,8.27027941 7.02298738,9.07318035 7.20771693,10.0593572 C7.39263851,11.0455341 7.57717603,12.0458812 7.76190558,13.0603986 C7.94682716,14.0745646 8.10860954,15.0047632 8.24725271,15.8498235 C8.38560785,16.6953522 8.45502545,17.2869881 8.45502545,17.6251996 C8.45512147,17.9070815 8.28191351,18.3016225 7.93520955,18.8084713 C7.58879364,19.3157885 7.18457773,19.8231057 6.72246581,20.3303058 Z" id="path-3"></path>
    </defs>
    <g id="Page-1" stroke="none" stroke-width="1" fill="none" fill-rule="evenodd">
        <g id="招聘信息" transform="translate(-53.000000, -27.000000)">
            <g id="Group-12">
                <g id="招聘信息" transform="translate(53.000000, 27.000000)">
                    <circle id="Oval-5" fill="#EC4970" cx="60" cy="60" r="60"></circle>
                    <g id="Group-2" transform="translate(33.000000, 28.000000)">
                        <g id="Rectangle-7">
                            <mask id="mask-2" fill="white">
                                <use xlink:href="#path-1"></use>
                            </mask>
                            <use id="Mask" fill="#F1F1F1" xlink:href="#path-1"></use>
                            <rect fill="#E8EEEE" mask="url(#mask-2)" x="-10" y="-7" width="39" height="89"></rect>
                        </g>
                        <g id="Rectangle-8" transform="translate(24.000000, 43.000000)">
                            <mask id="mask-4" fill="white">
                                <use xlink:href="#path-3"></use>
                            </mask>
                            <use id="Mask" fill="#433825" xlink:href="#path-3"></use>
                            <rect fill="#2C2518" mask="url(#mask-4)" x="-5" y="-5" width="10" height="30"></rect>
                        </g>
                    </g>
                </g>
            </g>
        </g>
    </g>
</svg>