<?xml version="1.0" standalone="no"?><!DOCTYPE svg PUBLIC "-//W3C//DTD SVG 1.1//EN" "http://www.w3.org/Graphics/SVG/1.1/DTD/svg11.dtd"><svg t="1483604595268" class="icon" style="" viewBox="0 0 1024 1024" version="1.1" xmlns="http://www.w3.org/2000/svg" p-id="4949" xmlns:xlink="http://www.w3.org/1999/xlink" width="64" height="64"><defs><style type="text/css"></style></defs><path d="M512 84.517929c-9.573029 0-19.145036 7.357572-26.40744 22.071691l-94.694709 191.872982c-14.523785 29.42824-52.979632 57.368592-85.456301 62.087057l-211.743542 30.768771c-32.476669 4.719488-39.821961 27.322275-16.320711 50.228985l153.219637 149.352563c23.500227 22.907733 38.188764 68.11433 32.641421 100.460016l-36.170804 210.888058c-4.021593 23.445992 4.971222 37.235043 21.288862 37.235043 6.194072 0 13.447267-1.989307 21.439288-6.191003l189.389418-99.567693c14.523785-7.634888 33.669844-11.453866 52.81488-11.453866s38.291095 3.818979 52.81488 11.453866l189.389418 99.567693c7.994068 4.202719 15.244192 6.191003 21.439288 6.191003 16.314571 0 25.309432-13.791098 21.288862-37.235043L760.761644 691.358971c-5.547343-32.345686 9.141194-77.552284 32.641421-100.460016l153.219637-149.352563c23.50125-22.906709 16.155958-45.51052-16.320711-50.228985l-211.743542-30.768771c-32.476669-4.719488-70.932516-32.658817-85.456301-62.087057L538.40744 106.58962C531.145036 91.8755 521.573029 84.517929 512 84.517929L512 84.517929z" p-id="4950" fill="#58cc7c"></path></svg>