<?xml version="1.0" standalone="no"?><!DOCTYPE svg PUBLIC "-//W3C//DTD SVG 1.1//EN" "http://www.w3.org/Graphics/SVG/1.1/DTD/svg11.dtd"><svg t="1483604159295" class="icon" style="" viewBox="0 0 1024 1024" version="1.1" xmlns="http://www.w3.org/2000/svg" p-id="18096" xmlns:xlink="http://www.w3.org/1999/xlink" width="64" height="64"><defs><style type="text/css"></style></defs><path d="M427.5 947.8h247.2l100.8 0.1c12.9 0 23.2 0 30.3-0.1 37-0.5 68-13.3 83-34.4 21.5-30.2 21.5-62.9 19.7-79.4 16.9-19.1 26.2-48 27.6-85.9 0.5-14-2.1-25.1-5.7-34.7 13.1-15.4 25.6-40.2 27.5-71.4 1.6-25.7-4.1-45.3-10.6-58.9 8.9-13.8 17.6-34 18.2-60.9 1.7-85.9-76.6-122.9-131-126.8l-114.5 2c1.7-3.9 4-8.1 6.3-11.4 6-7.3 37.2-47.4 63.8-126.6 33.9-100.3-52-170.3-55.7-173.2l-6.2-3.8-2-1c-3.3-1.4-15.3-5.8-30.9-5.8-13.8 0-26.6 3.4-38 10.1-23.8 14-38.1 40.1-42.5 77.5-7.8 67-64.5 127.7-96.8 153-4.4 3.5-8 6.3-10.4 8.3-21.1 18.2-39.7 57.3-56.3 91.8l-6.7 14c-9.2 18.7-34.2 49.4-48.8 63.4-8 0.2-18.9 0.4-28.7 0.5-6.3-18.2-17.2-40.6-41.4-40.6H122.2c-29.8 0-58.1 28.6-58.1 60v381.2c0 29.7 26.3 53 58.1 53h305.3z m-81.4-424.3l10.7-0.1c13.9-0.1 34.7-0.5 45.2-0.7l5.2-0.1 4-3.4c15.5-13.4 47.2-50.5 59.7-76.1l6.8-14.2c13.7-28.7 32.6-68.1 49.1-82.4 2.1-1.8 5.2-4.3 9.2-7.4 9.9-7.7 96.8-78.4 107.8-172.5 3.3-27.9 12.8-46.7 28.3-55.8 6.9-4 14.7-6.1 23.3-6.1 9.1 0 16.5 2.3 19 3.3l2.6 1.5c8 6.6 71.8 62.8 45.6 140.6-25.6 75.9-55.4 113.4-59.5 118.4-6.4 9.3-20.5 32.6-12.7 49.6l3.6 7.9 11.6 0.7 127.9-2.2c36.2 2.6 104.2 26.4 102.8 97.2-0.5 24.6-9.9 41.6-17.6 51.5l-6.2 7.9 5.2 8.6c5.9 9.7 12.6 26.4 11.1 50.7-1.7 28.3-14.7 49.6-25.4 59.2l-7.9 7.1 4.4 9.7c4.6 10.1 7.4 18.7 6.9 30.8-1.5 42.2-13.8 62-23.8 71.2l-6 5.5 1.5 8c1.6 8.4 5.4 38-13.7 64.8-7.4 10.4-27 21.7-59.7 22.1-7 0.1-17.2 0.1-29.9 0.1l-100.8-0.1H340.1V505.6c0.9 2.7 1.8 5.4 2.5 7.7l3.5 10.2zM93.3 894.8V513.6c0-15.3 15.3-30.9 29.1-30.9h189v436.1h-189c-13.5-0.1-29.1-8.5-29.1-24" p-id="18097"></path></svg>