<?xml version="1.0" standalone="no"?><!DOCTYPE svg PUBLIC "-//W3C//DTD SVG 1.1//EN" "http://www.w3.org/Graphics/SVG/1.1/DTD/svg11.dtd"><svg t="1483604346450" class="icon" style="" viewBox="0 0 1026 1024" version="1.1" xmlns="http://www.w3.org/2000/svg" p-id="19838" xmlns:xlink="http://www.w3.org/1999/xlink" width="64.125" height="64"><defs><style type="text/css"></style></defs><path d="M1019.804691 484.230459C1015.538342 426.634765 960.075827 383.971289 874.74887 383.971289L646.49927 383.971289C663.564666 337.041464 672.097357 283.712119 672.097357 232.515947 672.097357 164.254385 657.165139 100.25917 629.433882 57.595693 599.569448 10.665869 563.305494 0 539.840581 0 456.646802 0 454.513628 81.060605 454.513628 106.658691 454.513628 198.385166 441.714586 238.915469 424.649195 277.312598 411.850152 302.910684 332.92272 383.971289 251.862115 383.971289L100.406773 383.971289C40.677906 383.971289-1.985571 433.034287 0.147603 503.429023L0.147603 503.429023 0.147603 503.429023 40.677906 919.39792C44.944254 983.393133 76.941861 1021.790266 140.937076 1021.790266L196.399596 1021.790266 226.264029 1021.790266C245.462593 1021.790266 262.527984 1008.991219 275.327027 998.32535 285.992896 991.92583 292.392417 985.52631 300.925113 985.52631 305.19146 985.52631 322.256851 996.192179 345.721763 1004.72487 369.186675 1015.390739 405.45063 1021.790266 439.581412 1021.790266L757.424314 1021.790266C864.083002 1021.790266 915.279174 981.259962 915.279174 915.131571 915.279174 895.933005 911.012826 883.133965 900.346957 868.201747 943.010432 857.535878 981.407565 831.937792 981.407565 785.007968 981.407565 767.942579 972.874867 740.211315 962.208998 731.678624 981.407565 727.412275 1021.937869 691.14832 1024.07104 650.618016L1024.07104 644.218496C1021.937869 612.220888 1011.272 586.622803 987.807085 571.690586 1002.739302 563.15789 1021.937869 526.893935 1024.07104 490.62998L1024.07104 484.230459 1019.804691 484.230459 1019.804691 484.230459 1019.804691 484.230459ZM300.925113 426.634765 300.925113 934.330138C285.992896 938.596486 258.261636 957.795046 258.261636 957.795046L258.261636 934.330138 258.261636 426.634765C258.261636 426.634765 288.12607 424.501592 300.925113 420.235244L300.925113 426.634765 300.925113 426.634765Z" p-id="19839" fill="#58cc7c"></path></svg>