<?xml version="1.0" encoding="UTF-8"?>
<svg width="22px" height="20px" viewBox="0 0 22 20" version="1.1" xmlns="http://www.w3.org/2000/svg" xmlns:xlink="http://www.w3.org/1999/xlink">
    <!-- Generator: Sketch 40.3 (33839) - http://www.bohemiancoding.com/sketch -->
    <title>icon-地址</title>
    <desc>Created with Sketch.</desc>
    <defs></defs>
    <g id="Page-1" stroke="none" stroke-width="1" fill="none" fill-rule="evenodd">
        <g id="详情" transform="translate(-18.000000, -481.000000)">
            <g id="Group-8" transform="translate(0.000000, 65.000000)">
                <g id="地址" transform="translate(16.000000, 413.000000)">
                    <g id="icon-地址">
                        <rect id="Rectangle-12" x="0" y="0" width="26" height="26"></rect>
                        <g id="icon-城市">
                            <rect id="Rectangle-12" x="0" y="0" width="26" height="26"></rect>
                            <g id="iconfont-chengshi" transform="translate(2.000000, 3.000000)" fill="#515151">
                                <path d="M21.5771588,18.837883 L0.398328691,18.837883 C0.163008357,18.837883 0.0061281337,18.9947632 0.0061281337,19.2300836 C0.0061281337,19.4654039 0.163008357,19.6222841 0.398328691,19.6222841 L21.5771588,19.6222841 C21.8124791,19.6222841 21.9693593,19.4654039 21.9693593,19.2300836 C21.9693593,18.9947632 21.8124791,18.837883 21.5771588,18.837883" id="Fill-1"></path>
                                <path d="M5.35714286,1.97127537 C5.35714286,1.70401555 5.54971067,1.48298484 5.77780969,1.48298484 L9.22219031,1.48298484 C9.45211116,1.48298484 9.64285714,1.70382683 9.64285714,1.97127537 L9.64285714,19.5 L10.5,19.5 L10.5,1.97127537 C10.5,1.16302214 9.92733351,0.5 9.22219031,0.5 L5.77780969,0.5 C5.07615785,0.5 4.5,1.16131808 4.5,1.97127537 L4.5,19.5 L5.35714286,19.5 L5.35714286,1.97127537 Z" id="Rectangle-7"></path>
                                <path d="M12.5275808,7.82102845 C12.5285686,7.74269717 12.4762056,7.76117464 12.6372555,7.87509926 L15.6481699,10.0049802 C15.9637024,10.2281837 16.2296271,10.5773946 16.2317026,10.6757855 L16.4056488,18.9218462 L17.2165277,18.9053213 L17.0425814,10.6592606 C17.0339822,10.2516077 16.6237968,9.71295444 16.1219407,9.35794804 L13.1110263,7.22806713 C12.4593322,6.76706731 11.7262296,7.02575903 11.716557,7.81623489 L11.7165277,18.9135837 L12.5275808,18.9135837 L12.5275808,7.82102845 Z" id="Rectangle-7"></path>
                            </g>
                        </g>
                    </g>
                </g>
            </g>
        </g>
    </g>
</svg>