<?xml version="1.0" encoding="UTF-8"?>
<svg width="22px" height="20px" viewBox="0 0 22 20" version="1.1" xmlns="http://www.w3.org/2000/svg" xmlns:xlink="http://www.w3.org/1999/xlink">
    <!-- Generator: Sketch 40.3 (33839) - http://www.bohemiancoding.com/sketch -->
    <title>icon-地址</title>
    <desc>Created with Sketch.</desc>
    <defs>
        <path d="M9.4189415,0.0122562674 L6.20289694,0.0122562674 C5.57537604,0.0514763231 5.10473538,0.561337047 5.10473538,1.18885794 L5.10473538,19.6222841 L5.88913649,19.6222841 L5.88913649,1.18885794 C5.88913649,0.953537604 6.04601671,0.796657382 6.28133705,0.796657382 L9.4189415,0.796657382 C9.65426184,0.796657382 9.81114206,0.953537604 9.81114206,1.18885794 L9.81114206,19.6222841 L10.5955432,19.6222841 L10.5955432,1.11041783 C10.5563231,0.482896936 10.0464624,0.0122562674 9.4189415,0.0122562674 L9.4189415,0.0122562674 Z M16.8707521,11.3076323 C16.831532,10.9938719 16.6746518,10.7193315 16.4001114,10.5232312 L13.3409471,7.38562674 C13.1448468,7.18952646 12.8703064,7.0718663 12.556546,7.0718663 C11.9290251,7.0718663 11.4191643,7.58172702 11.3799443,8.17002786 L11.3799443,19.6222841 L12.1643454,19.6222841 L12.1643454,8.24846797 C12.1643454,8.01314763 12.3212256,7.85626741 12.556546,7.85626741 C12.6349861,7.85626741 12.7526462,7.89548747 12.7918663,7.93470752 L12.8703064,8.01314763 L15.9294708,11.111532 L15.9686908,11.1899721 C16.0079109,11.2684123 16.0471309,11.3468524 16.0471309,11.4252925 L16.0471309,19.6222841 L16.831532,19.6222841 L16.831532,12.0920334 L16.8707521,11.3076323 L16.8707521,11.3076323 Z" id="path-1"></path>
        <mask id="mask-2" maskContentUnits="userSpaceOnUse" maskUnits="objectBoundingBox" x="0" y="0" width="11.7660167" height="19.6100279" fill="white">
            <use xlink:href="#path-1"></use>
        </mask>
    </defs>
    <g id="Page-1" stroke="none" stroke-width="1" fill="none" fill-rule="evenodd">
        <g id="详情" transform="translate(-18.000000, -454.000000)">
            <g id="Group-8" transform="translate(0.000000, 2.000000)">
                <g id="地址" transform="translate(16.000000, 449.000000)">
                    <g id="icon-地址">
                        <rect id="Rectangle-12" x="0" y="0" width="26" height="26"></rect>
                        <g id="icon-城市">
                            <rect id="Rectangle-12" x="0" y="0" width="26" height="26"></rect>
                            <g id="iconfont-chengshi" transform="translate(2.000000, 3.000000)">
                                <path d="M21.5771588,18.837883 L0.398328691,18.837883 C0.163008357,18.837883 0.0061281337,18.9947632 0.0061281337,19.2300836 C0.0061281337,19.4654039 0.163008357,19.6222841 0.398328691,19.6222841 L21.5771588,19.6222841 C21.8124791,19.6222841 21.9693593,19.4654039 21.9693593,19.2300836 C21.9693593,18.9947632 21.8124791,18.837883 21.5771588,18.837883" id="Fill-1" fill="#515151"></path>
                                <use id="Fill-2" stroke="#515151" mask="url(#mask-2)" stroke-width="2" xlink:href="#path-1"></use>
                            </g>
                        </g>
                    </g>
                </g>
            </g>
        </g>
    </g>
</svg>