<?xml version="1.0" encoding="UTF-8"?>
<svg width="22px" height="20px" viewBox="0 0 22 20" version="1.1" xmlns="http://www.w3.org/2000/svg" xmlns:xlink="http://www.w3.org/1999/xlink">
    <!-- Generator: Sketch 40.3 (33839) - http://www.bohemiancoding.com/sketch -->
    <title>icon-点评</title>
    <desc>Created with Sketch.</desc>
    <defs></defs>
    <g id="Page-1" stroke="none" stroke-width="1" fill="none" fill-rule="evenodd" opacity="0.870000005">
        <g id="详情" transform="translate(-326.000000, -922.000000)">
            <g id="Group-8" transform="translate(0.000000, 2.000000)">
                <g id="评论1" transform="translate(16.000000, 734.000000)">
                    <g id="Group-5" transform="translate(308.000000, 183.000000)">
                        <g id="icon-点评">
                            <rect id="Rectangle-11" x="0" y="0" width="26" height="26"></rect>
                            <g id="icon_点评" transform="translate(2.000000, 3.000000)" fill="#515151">
                                <path d="M14.6111111,8.22222222 C14.6111111,9.29651243 15.4821674,10.1666667 16.5555556,10.1666667 C17.6289437,10.1666667 18.5,9.29651243 18.5,8.22222222 C18.5,7.14942514 17.6283526,6.27777778 16.5555556,6.27777778 C15.4827585,6.27777778 14.6111111,7.14942514 14.6111111,8.22222222 Z M17.3888889,8.22222222 C17.3888889,8.68260485 17.0155516,9.05555556 16.5555556,9.05555556 C16.0955595,9.05555556 15.7222222,8.68260485 15.7222222,8.22222222 C15.7222222,7.76307486 16.0964082,7.38888889 16.5555556,7.38888889 C17.0147029,7.38888889 17.3888889,7.76307486 17.3888889,8.22222222 Z" id="Path"></path>
                                <path d="M13.0902778,16.0569444 L12.8831223,16.0569444 L12.7366657,16.2034498 L10.6463879,18.294422 L11.3535534,18.2943633 L9.26258117,16.2033911 L9.11613456,16.0569444 L8.90902778,16.0569444 L1.97222222,16.0569444 C1.86491094,16.0569444 1.77777778,15.9695704 1.77777778,15.8611111 L1.77777778,1.97222222 C1.77777778,1.86471401 1.86465397,1.77777778 1.97222222,1.77777778 L20.0277778,1.77777778 C20.1349687,1.77777778 20.2222222,1.86503126 20.2222222,1.97222222 L20.2222222,15.8611111 C20.2222222,15.9692528 20.1347119,16.0569444 20.0277778,16.0569444 L13.0902778,16.0569444 Z M21.2222222,15.8611111 L21.2222222,1.97222222 C21.2222222,1.31274651 20.6872535,0.777777778 20.0277778,0.777777778 L1.97222222,0.777777778 C1.31221451,0.777777778 0.777777778,1.31258385 0.777777778,1.97222222 L0.777777778,15.8611111 C0.777777778,16.5212381 1.31200728,17.0569444 1.97222222,17.0569444 L8.90902778,17.0569444 L8.55547439,16.9104978 L10.6464466,19.0014701 L11.0000587,19.3550822 L11.3536121,19.0014113 L13.4438899,16.9104391 L13.0902778,17.0569444 L20.0277778,17.0569444 C20.6874605,17.0569444 21.2222222,16.5210748 21.2222222,15.8611111 Z" id="Path"></path>
                                <path d="M3.5,8.22222222 C3.5,9.29651243 4.37105626,10.1666667 5.44444444,10.1666667 C6.51783263,10.1666667 7.38888889,9.29651243 7.38888889,8.22222222 C7.38888889,7.14942514 6.51724153,6.27777778 5.44444444,6.27777778 C4.37164736,6.27777778 3.5,7.14942514 3.5,8.22222222 Z M6.27777778,8.22222222 C6.27777778,8.68260485 5.90444047,9.05555556 5.44444444,9.05555556 C4.98444842,9.05555556 4.61111111,8.68260485 4.61111111,8.22222222 C4.61111111,7.76307486 4.98529708,7.38888889 5.44444444,7.38888889 C5.90359181,7.38888889 6.27777778,7.76307486 6.27777778,8.22222222 Z" id="Path"></path>
                                <path d="M9.05555556,8.22222222 C9.05555556,9.29651243 9.92661182,10.1666667 11,10.1666667 C12.0733882,10.1666667 12.9444444,9.29651243 12.9444444,8.22222222 C12.9444444,7.14942514 12.0727971,6.27777778 11,6.27777778 C9.92720292,6.27777778 9.05555556,7.14942514 9.05555556,8.22222222 Z M11.8333333,8.22222222 C11.8333333,8.68260485 11.459996,9.05555556 11,9.05555556 C10.540004,9.05555556 10.1666667,8.68260485 10.1666667,8.22222222 C10.1666667,7.76307486 10.5408526,7.38888889 11,7.38888889 C11.4591474,7.38888889 11.8333333,7.76307486 11.8333333,8.22222222 Z" id="Path"></path>
                            </g>
                        </g>
                    </g>
                </g>
            </g>
        </g>
    </g>
</svg>