<?xml version="1.0" encoding="UTF-8"?>
<svg width="22px" height="20px" viewBox="0 0 22 20" version="1.1" xmlns="http://www.w3.org/2000/svg" xmlns:xlink="http://www.w3.org/1999/xlink">
    <!-- Generator: Sketch 40.3 (33839) - http://www.bohemiancoding.com/sketch -->
    <title>icon_address</title>
    <desc>Created with Sketch.</desc>
    <defs></defs>
    <g id="Page-1" stroke="none" stroke-width="1" fill="none" fill-rule="evenodd">
        <g id="详情" transform="translate(-18.000000, -419.000000)">
            <g id="Group-8" transform="translate(0.000000, 2.000000)">
                <g id="城市" transform="translate(18.000000, 417.000000)">
                    <g id="icon_address">
                        <path d="M0.5,16.3265884 C0.5,18.1653179 5.14508208,19.3265884 11,19.3265884 C16.8549179,19.3265884 21.5,18.1653179 21.5,16.3265884 C21.5,14.8783382 18.8015931,13.9051928 14.7158345,13.502412 C14.4410243,13.4753208 14.1962848,13.6761367 14.1691935,13.950947 C14.1421023,14.2257572 14.3429182,14.4704967 14.6177285,14.497588 C18.1121328,14.8420721 20.5,15.7032254 20.5,16.3265884 C20.5,16.6618248 19.591352,17.1988961 17.9498,17.6092841 C16.1293334,18.0644007 13.6498085,18.3265884 11,18.3265884 C8.35019153,18.3265884 5.87066657,18.0644007 4.0502,17.6092841 C2.40864801,17.1988961 1.5,16.6618248 1.5,16.3265884 C1.5,15.7155008 3.81644392,14.8656919 7.23420141,14.5125354 C7.50888129,14.4841527 7.70854465,14.238472 7.68016201,13.9637921 C7.65177936,13.6891122 7.40609864,13.4894489 7.13141876,13.5178315 C3.12699593,13.9316081 0.5,14.8953459 0.5,16.3265884 Z" id="Oval" fill="#515151"></path>
                        <path d="M11.5523049,15.6905955 L10.8754013,16.4266672 L10.1815811,15.706519 L10.3869931,15.508749 C10.4215162,15.4757307 10.5039848,15.3943549 10.6166484,15.2793359 C10.8046089,15.0874458 11.0144114,14.865124 11.2400177,14.6158938 C11.8810874,13.9076957 12.5211406,13.1258129 13.1156217,12.2954646 C14.7652543,9.99132156 15.7435889,7.76823175 15.7435889,5.86997354 C15.7435889,3.18582692 13.557285,1 10.8717945,1 C8.18630398,1 6,3.18582692 6,5.86997354 C6,7.81514895 6.95121089,10.0176915 8.56354237,12.2688696 C9.57679834,13.6836034 10.6150207,14.8151033 11.3586803,15.5126008 L11.5523049,15.6905955 Z M5,5.86997354 C5,2.63376315 7.63379817,0 10.8717945,0 C14.1097908,0 16.7435889,2.63376315 16.7435889,5.86997354 C16.7435889,10.7861657 11.1281952,16.1846238 11.070801,16.2384112 L10.8754013,16.4266672 L10.6745739,16.241983 C10.4432809,16.0250474 5,10.8740255 5,5.86997354 Z" id="Path" fill="#595968"></path>
                        <path d="M9.99999882,6.11231821 C10.0009388,6.72473155 10.5024198,7.22592011 11.113853,7.22592011 C11.7263769,7.22592011 12.2294919,6.72397668 12.2294919,6.11385301 C12.2294919,5.50030507 11.728311,5 11.113853,5 C10.5007434,5 10,5.50074344 9.99999882,6.11231821 Z M13.2294919,6.11385301 C13.2294919,7.27746142 12.2774614,8.22592011 11.113853,8.22592011 C9.9502446,8.22592011 9.00178591,7.27746142 9,6.11385301 C9,4.94845869 9.94845869,4 11.113853,4 C12.2792473,4 13.2294919,4.94667278 13.2294919,6.11385301 Z" id="Path" fill="#595968"></path>
                    </g>
                </g>
            </g>
        </g>
    </g>
</svg>