<?xml version="1.0" encoding="UTF-8"?>
<svg width="17px" height="14px" viewBox="0 0 17 14" version="1.1" xmlns="http://www.w3.org/2000/svg" xmlns:xlink="http://www.w3.org/1999/xlink">
    <!-- Generator: Sketch 40.3 (33839) - http://www.bohemiancoding.com/sketch -->
    <title>icon-相册</title>
    <desc>Created with Sketch.</desc>
    <defs></defs>
    <g id="Page-1" stroke="none" stroke-width="1" fill="none" fill-rule="evenodd">
        <g id="详情" transform="translate(-52.000000, -1100.000000)">
            <g id="Inputbar" transform="translate(0.000000, 1090.000000)">
                <g id="icon-相册" transform="translate(50.000000, 7.000000)">
                    <rect id="Rectangle-5" x="0" y="0" width="20" height="20"></rect>
                    <g id="Group-7" transform="translate(2.000000, 3.000000)" fill="#595968">
                        <path d="M4.22672563,4.5887688 C5.04781616,4.5887688 5.71585933,3.92063092 5.71585933,3.09939833 C5.71585933,2.27828412 5.04783983,1.61026462 4.22672563,1.61026462 C3.40565877,1.61026462 2.73766295,2.27828412 2.73766295,3.09939833 C2.7376156,3.49724095 2.89250975,3.8712883 3.17376741,4.15259331 C3.45500139,4.43387465 3.82895404,4.5887688 4.22672563,4.5887688" id="Fill-1"></path>
                        <path d="M15.3915348,9.65083844 L15.3915348,1.81897632 C15.3915348,0.81675766 14.6366922,0.00137325905 13.7088189,0.00137325905 L1.69509889,0.00137325905 C0.767272981,0.00137325905 0.012454039,0.816733983 0.012454039,1.81897632 L0.012454039,9.65083844 C0.012454039,10.6531045 0.767272981,11.4685125 1.69509889,11.4685125 L13.7088189,11.4685125 C14.6366685,11.4685125 15.3915348,10.6531045 15.3915348,9.65083844 L15.3915348,9.65083844 Z M1.69509889,0.936420613 L13.7088189,0.936420613 C14.1210334,0.936420613 14.4563928,1.33232173 14.4563928,1.81897632 L14.4563928,6.53311421 L11.7122187,3.55226602 C11.611805,3.31855153 11.3825181,3.15423398 11.1131226,3.15423398 C10.8721393,3.15423398 10.6646114,3.28627994 10.5525014,3.48282173 L6.73718524,7.3443078 C6.62668524,7.42395682 6.62668524,7.42395682 6.50619359,7.3443078 L4.34080084,5.55073677 C4.22201393,5.38989972 4.03293036,5.28489276 3.82038301,5.28489276 C3.7116351,5.28489276 3.60949304,5.31531755 3.51921309,5.36276602 L3.41707103,5.42884819 C3.38363928,5.45425348 3.35513231,5.4846546 3.32669638,5.51519777 L0.947501393,7.82258078 L0.947501393,1.81897632 C0.947501393,1.33232173 1.28286072,0.936420613 1.69509889,0.936420613 L1.69509889,0.936420613 Z M0.947501393,9.65083844 L0.947501393,9.26398189 L3.70322981,6.59408217 C3.79696657,6.51443315 3.85717688,6.50938997 3.95088997,6.59233008 L6.08448468,8.35883844 C6.26857242,8.4892507 6.4694234,8.65186351 6.62668524,8.65186351 C6.78399443,8.65186351 6.97144429,8.59769081 7.17390529,8.39276741 L11.0511838,4.4684429 C11.0712855,4.47019499 11.0913872,4.47526184 11.1131226,4.47526184 C11.1197994,4.47526184 11.1265237,4.47358078 11.1332242,4.47358078 L14.4563928,8.08449443 L14.4563928,9.65083844 C14.4563928,10.137493 14.1210334,10.5334178 13.7088189,10.5334178 L1.69509889,10.5334178 C1.28286072,10.5334178 0.947501393,10.137493 0.947501393,9.65083844 L0.947501393,9.65083844 Z" id="Fill-2"></path>
                        <path d="M15.980805,1.80727994 L15.9128997,1.77737604 L15.9148649,2.9519624 L15.9236964,2.96446379 C16.0239916,3.10643036 16.0612827,3.24479805 16.0612827,3.47493733 L16.0612827,11.3067521 C16.0612827,11.7934304 15.7259234,12.1893552 15.3136852,12.1893552 L3.30001253,12.1893552 C3.0490376,12.1893552 2.94587744,12.1563969 2.78949164,11.9503844 L2.77455153,11.9307089 L2.74983287,11.9313008 C2.6879415,11.9328162 2.5990585,11.9335501 2.47811699,11.9335501 C2.36195822,11.9335501 2.23344011,11.9328635 2.11387187,11.9322479 C2.00981198,11.931727 1.91254735,11.9312061 1.83614206,11.9312061 L1.7258078,11.9315139 L1.74278412,11.9925529 C1.94287744,12.7118565 2.51045961,13.1243788 3.30003621,13.1243788 L15.3137089,13.1243788 C16.2415348,13.1243788 16.9964011,12.3089708 16.9964011,11.3066811 L16.9964011,3.4748663 C16.9963538,2.7219415 16.6072242,2.08294986 15.980805,1.80727994" id="Fill-3"></path>
                    </g>
                </g>
            </g>
        </g>
    </g>
</svg>