<?xml version="1.0" encoding="UTF-8"?>
<svg width="17px" height="24px" viewBox="0 0 17 24" version="1.1" xmlns="http://www.w3.org/2000/svg" xmlns:xlink="http://www.w3.org/1999/xlink">
    <!-- Generator: Sketch 40.3 (33839) - http://www.bohemiancoding.com/sketch -->
    <title>icon-电话</title>
    <desc>Created with Sketch.</desc>
    <defs></defs>
    <g id="Page-1" stroke="none" stroke-width="1" fill="none" fill-rule="evenodd">
        <g id="详情" transform="translate(-21.000000, -380.000000)">
            <g id="Group-8" transform="translate(0.000000, 2.000000)">
                <g id="电话" transform="translate(16.000000, 377.000000)">
                    <g id="icon-电话">
                        <rect id="Rectangle-12" x="0" y="0" width="26" height="26"></rect>
                        <path d="M15.6536332,15.8430224 C15.5609537,15.8666265 15.5609537,15.8666265 15.4772029,15.8886109 C15.4108626,15.9061023 15.3896733,15.9114382 15.3621606,15.9173183 C15.2377559,15.9439062 15.1908673,15.929286 15.000933,15.736885 C14.6679525,15.3995798 14.205086,14.6828868 13.5575231,13.4604872 L13.3724202,13.1093715 C12.7685843,11.9697756 12.4300668,11.1731714 12.3050421,10.6679559 C12.2375468,10.3952126 12.2440152,10.3257389 12.23578,10.3365485 C12.2653206,10.3082676 12.2980845,10.2779745 12.3416067,10.2396227 C12.3873534,10.1996354 12.3873534,10.1996354 12.4382177,10.1556748 C12.6111883,10.004804 12.7151144,9.91045651 12.8287681,9.79745381 L12.4762316,9.44288641 L12.4762316,9.94288641 L12.8313519,9.7955124 C12.9811517,9.64492565 13.1139427,9.49248784 13.2352176,9.32787377 C14.03014,8.25274101 13.9002798,6.61253199 13.2955497,4.77647065 C12.7690107,3.17514941 12.1017732,2.06815413 11.1478631,1.77364671 C9.97353063,1.4144767 8.26429343,1.68687916 7.05557883,2.89505843 C6.49435878,3.45699849 6.07565348,4.18336493 5.80982656,5.04810003 C4.91572612,7.95674648 5.88552889,11.2513756 8.38750276,15.9730233 C10.8902068,20.6950211 13.0725885,23.3489943 15.9777381,24.2409959 C17.9905435,24.8605866 19.569627,24.3458994 20.6760071,23.2396236 C21.1677466,22.7477683 21.5391834,22.1415315 21.6860203,21.6643113 C21.9606817,20.7711911 21.5069606,19.6252154 20.4132859,18.2051808 C19.2302078,16.6697714 17.9453017,15.6402366 16.6068873,15.6947327 C16.2847967,15.7076732 15.9979329,15.756657 15.6536332,15.8430224 Z M19.6210914,18.8154495 C20.5336598,20.0003344 20.881412,20.8786617 20.7302195,21.3702962 C20.6321725,21.6889492 20.347099,22.154229 19.9688753,22.5325418 C19.1076566,23.3936793 17.9014109,23.7868436 16.2715975,23.2851473 C13.7075753,22.4978859 11.6537327,20.0002279 9.27109325,15.5047628 C6.88911369,11.0095647 5.97650733,7.90924412 6.76568373,5.34193171 C6.98534284,4.62738052 7.32191014,4.0435064 7.76283395,3.60201671 C8.6832551,2.68200347 10.0082847,2.47083248 10.8541267,2.72953228 C11.3754904,2.8904984 11.9195291,3.79309796 12.3456639,5.08906764 C12.8526182,6.62826566 12.9623963,8.01482556 12.4306247,8.73404755 C12.3397667,8.85737365 12.2390424,8.97300048 12.1223952,9.09026042 L12.4768735,9.44288641 L12.4768735,8.94288641 L12.1236952,9.08831901 C12.0293383,9.18213541 11.9386082,9.26450312 11.7822016,9.40092989 C11.7333069,9.44317264 11.7333069,9.44317264 11.68047,9.48935717 C11.6224748,9.54046278 11.5752301,9.58414457 11.5300204,9.62935424 C11.4973055,9.66187023 11.4704864,9.69094581 11.4403243,9.73053677 C11.0282426,10.2714385 11.2834757,11.3028167 12.4883099,13.5766487 L12.6733906,13.9277223 C14.0006982,16.4332731 14.6508952,17.0919146 15.5711623,16.8952335 C15.6196089,16.8848795 15.6590194,16.874955 15.7319096,16.8556288 C15.8130311,16.8343403 15.8130311,16.8343403 15.8969388,16.8129721 C16.1803163,16.7418887 16.4040189,16.70369 16.6473011,16.6939157 C17.5425424,16.6574643 18.6291757,17.5281325 19.6210914,18.8154495 Z" id="iconfont-dianhua-5" fill="#515151"></path>
                    </g>
                </g>
            </g>
        </g>
    </g>
</svg>