<?xml version="1.0" encoding="UTF-8"?>
<svg width="20px" height="20px" viewBox="0 0 20 20" version="1.1" xmlns="http://www.w3.org/2000/svg" xmlns:xlink="http://www.w3.org/1999/xlink">
    <!-- Generator: Sketch 40.3 (33839) - http://www.bohemiancoding.com/sketch -->
    <title>icon_thumber</title>
    <desc>Created with Sketch.</desc>
    <defs></defs>
    <g id="Page-1" stroke="none" stroke-width="1" fill="none" fill-rule="evenodd" opacity="0.870000005">
        <g id="详情" transform="translate(-273.000000, -919.000000)">
            <g id="Group-8" transform="translate(0.000000, 2.000000)">
                <g id="评论1" transform="translate(16.000000, 734.000000)">
                    <g id="Group-4" transform="translate(254.000000, 180.000000)">
                        <g id="icon_thumber">
                            <rect id="Rectangle" x="0" y="0" width="26" height="26"></rect>
                            <g id="Group" transform="translate(3.000000, 3.000000)" fill="#515151">
                                <path d="M1.54689082,8.04155834 L4.63351427,8.04155834 C4.64950495,8.04155834 4.65659556,8.04861733 4.65659556,8.06730977 L4.65659556,18.2790102 C4.65659556,18.2931667 4.64503522,18.3047616 4.63351427,18.3047616 L1.54689082,18.3047616 C1.53090014,18.3047616 1.52380952,18.2977026 1.52380952,18.2790102 L1.52380952,8.06730977 C1.52380952,8.05315323 1.53536987,8.04155834 1.54689082,8.04155834 Z M0.380952381,18.2790102 C0.380952381,18.9300317 0.900858387,19.4476188 1.54689082,19.4476188 L4.63351427,19.4476188 C5.27698251,19.4476188 5.79945271,18.9235871 5.79945271,18.2790102 L5.79945271,8.06730977 C5.79945271,7.41628829 5.2795467,6.89870119 4.63351427,6.89870119 L1.54689082,6.89870119 C0.903422582,6.89870119 0.380952381,7.42273286 0.380952381,8.06730977 L0.380952381,18.2790102 Z" id="Rectangle-3"></path>
                                <path d="M14.9322988,18.6329002 C16.904689,18.6329002 18.2660237,17.4813377 18.5053572,15.5995946 L19.4914584,9.39554337 L19.4985387,9.20286149 L19.4985387,9.12045582 C19.4985387,7.36540432 18.0953807,5.93264706 16.3647817,5.93264706 L12.9348932,5.93264706 L13.5063218,6.50407563 L13.5063218,4.03190537 C13.5063218,2.67542784 13.0763602,1.61548019 12.2288434,0.979160373 C11.2135526,0.211223911 9.97248555,0.254495762 9.05859781,0.565551096 C8.56752965,0.719668895 8.22742269,1.19017924 8.22742269,1.72454646 L8.22742269,4.73235361 C8.22742269,6.11768894 6.60142777,7.71865176 5.9539539,7.88393481 L6.23663035,8.9912814 C7.34248044,8.70898696 9.37027983,6.71240542 9.37027983,4.73235361 L9.37027983,1.72454646 C9.37027983,1.68606133 9.38960835,1.6593219 9.4139977,1.65165918 C10.0146255,1.44739532 10.9120232,1.41610606 11.5410396,1.89187296 C12.0725903,2.29096836 12.3634646,3.00803611 12.3634646,4.03190537 L12.3634646,6.50407563 L12.3634646,7.0755042 L12.9348932,7.0755042 L16.3647817,7.0755042 C17.4587966,7.0755042 18.3556815,7.99130868 18.3556815,9.12045582 L18.3556815,9.20286149 L18.3556815,9.30586859 L17.3741469,15.4378223 C17.2061694,16.7563464 16.3388204,17.490043 14.9322988,17.490043 L5.02597396,17.490043 L5.02597396,18.6329002 L14.9322988,18.6329002 Z" id="Shape"></path>
                            </g>
                        </g>
                    </g>
                </g>
            </g>
        </g>
    </g>
</svg>