<?xml version="1.0" encoding="UTF-8"?>
<svg width="120px" height="120px" viewBox="0 0 120 120" version="1.1" xmlns="http://www.w3.org/2000/svg" xmlns:xlink="http://www.w3.org/1999/xlink">
    <!-- Generator: Sketch 40.3 (33839) - http://www.bohemiancoding.com/sketch -->
    <title>Group 5</title>
    <desc>Created with Sketch.</desc>
    <defs>
        <path d="M56.7515718,15.929252 C56.3256134,14.3208037 55.6770777,11.8576698 55.1293737,9.71684698 C54.5294353,7.37237489 52.9527024,5.82175409 50.6893442,5.35091538 C49.198389,5.04073109 47.9164726,5.32455724 47.6745978,5.38458967 L39.145631,7.67043243 C33.7021341,4.63533676 28.5670933,1.77422492 27.1509031,0.991297716 C24.8448076,-0.28321396 22.4083785,-0.330217654 20.2905088,0.858805427 C18.8104653,1.68963831 17.9908794,2.83887362 17.8416525,3.06076312 L9.87665615,15.929252 L3.17528898,15.929252 C1.42447497,15.929252 0,17.3423695 0,19.0792011 L0,25.9109725 C0,27.6471026 1.42447497,29.0595185 3.17528898,29.0595185 L5.30497959,29.0595185 L5.30497959,54.5324137 C5.30497959,59.7528304 9.58658823,64 14.8493357,64 L50.2626786,64 C55.5254261,64 59.8070347,59.7528304 59.8070347,54.5324137 L59.8070347,29.0609216 L62.8243069,29.0610218 C64.575323,29.0610218 66,27.6479043 66,25.9109725 L66,19.0792011 C65.999899,17.3423695 64.5752219,15.929252 62.8243069,15.929252 L56.7515718,15.929252 Z" id="path-1"></path>
        <path d="M55.6719549,16.4314629 C55.2653583,14.8732786 54.6463015,12.4871176 54.1234931,10.4131955 C53.5508246,8.14198817 52.0457614,6.63982428 49.8852831,6.18369928 C48.4620986,5.88320825 47.2384512,6.15816482 47.0075706,6.21632125 L38.8662841,8.43073141 C33.6702189,5.49048249 28.7685891,2.71878039 27.4167711,1.96031966 C25.2154981,0.725636476 22.8898158,0.680101648 20.8682129,1.83196776 C19.4554441,2.63683711 18.6731122,3.75015882 18.5306683,3.96511428 L10.9277172,16.4314629 L4.53095766,16.4314629 C2.85972611,16.4314629 1.5,17.8004205 1.5,19.4829761 L1.5,26.1012546 C1.5,27.7831306 2.85972611,29.1514085 4.53095766,29.1514085 L6.56384415,29.1514085 L6.56384415,53.8282758 C6.56384415,58.8855545 10.6508342,63 15.6743659,63 L49.4780114,63 C54.5015431,63 58.5885331,58.8855545 58.5885331,53.8282758 L58.5885331,29.1527678 L61.4686566,29.1528649 C63.140081,29.1528649 64.5,27.7839073 64.5,26.1012546 L64.5,19.4829761 C64.4999036,17.8004205 63.1399846,16.4314629 61.4686566,16.4314629 L55.6719549,16.4314629 Z" id="path-3"></path>
        <path d="M2.50440558,16 C2.7207352,15.953659 2.94519388,15.929252 3.17528898,15.929252 L9.87665615,15.929252 L17.8416525,3.06076312 C17.9908794,2.83887362 18.8104653,1.68963831 20.2905088,0.858805427 C22.4083785,-0.330217654 24.8448076,-0.28321396 27.1509031,0.991297716 C28.5670933,1.77422492 33.7021341,4.63533676 39.145631,7.67043243 L47.6745978,5.38458967 C47.9164726,5.32455724 49.198389,5.04073109 50.6893442,5.35091538 C52.9527024,5.82175409 54.5294353,7.37237489 55.1293737,9.71684698 C55.6770777,11.8576698 56.3256134,14.3208037 56.7515718,15.929252 L62.8243069,15.929252 C63.0544153,15.929252 63.278889,15.953659 63.4952349,16 L2.50440558,16 Z" id="path-5"></path>
    </defs>
    <g id="Page-1" stroke="none" stroke-width="1" fill="none" fill-rule="evenodd">
        <g id="闲置出售" transform="translate(-53.000000, -30.000000)">
            <g id="Group-5" transform="translate(53.000000, 30.000000)">
                <circle id="Oval-5-Copy" fill="#F6CB58" cx="60" cy="60" r="60"></circle>
                <g id="闲置" transform="translate(27.000000, 28.000000)">
                    <path d="M31.6835267,53.8618443 C32.0792244,54.1204031 32.5353802,54.259658 33.0008061,54.259658 L33.0078595,54.259658 L33.0175328,54.259658 C33.0254931,54.259658 33.0335542,54.259658 33.0415145,54.2595573 L33.6764244,54.2577435 L34.0549924,54.0223603 C34.1612977,53.9708702 34.2643786,53.9113191 34.3632275,53.8439084 C38.7319237,51.3954595 43.3135328,48.323084 44.4866198,44.0911237 C45.0291298,42.1334931 44.7507206,40.1138931 43.6840397,38.255716 C42.4142198,36.0312641 40.4285771,34.8060824 38.0928824,34.8060824 C36.2392397,34.8060824 34.4189496,35.5959664 33.0085649,36.6666779 C31.5982809,35.5960672 29.7784947,34.8060824 27.9255573,34.8060824 C25.5910718,34.8060824 23.6046229,36.0303573 22.332687,38.2521893 C21.2664092,40.1125832 20.9888061,42.1292611 21.5300061,44.084171 C22.7024885,48.319255 27.3046534,51.4030168 31.6835267,53.8618443 L31.6835267,53.8618443 Z" id="Path" fill="#51B8FE"></path>
                    <path d="M48.8024377,9.90005115 C48.968032,9.86808062 49.4115702,9.81967383 49.8033791,9.92109758 C50.096276,9.99696494 50.3978618,10.1321632 50.584269,10.8611715 C50.8941396,12.0723434 51.2359368,13.3852398 51.5518694,14.5900978 C50.7262215,14.1294816 49.7600356,13.5903923 48.6960491,12.996883 L48.0716605,10.9635974 L46.1122118,11.5556034 C45.7409127,11.3484464 45.3632485,11.1377817 44.9807347,10.9245112 L48.8024377,9.90005115 L48.8024377,9.90005115 Z M44.3863531,15.929252 L29.3318178,15.929252 L32.9696394,9.56320804 C36.6068547,11.5902799 40.827742,13.944273 44.3863531,15.929252 L44.3863531,15.929252 Z" id="Fill-2" fill="#FFFFFF"></path>
                    <g id="Rectangle-9">
                        <g>
                            <mask id="mask-2" fill="white">
                                <use xlink:href="#path-1"></use>
                            </mask>
                            <use id="Mask" fill="#EBEBEB" xlink:href="#path-1"></use>
                            <mask id="mask-4" fill="white">
                                <use xlink:href="#path-3"></use>
                            </mask>
                            <use id="Mask" fill="#EEEEEB" xlink:href="#path-3"></use>
                            <rect id="Rectangle-13" fill="#F6F4EC" mask="url(#mask-4)" x="-4" y="6" width="39" height="69"></rect>
                            <polygon fill="#B3C5CC" style="mix-blend-mode: darken;" opacity="0.267436594" mask="url(#mask-4)" points="66 37.7812083 3.5 28.0273151 66 28.0273151"></polygon>
                        </g>
                        <mask id="mask-6" fill="white">
                            <use xlink:href="#path-5"></use>
                        </mask>
                        <use id="Combined-Shape" fill="#F6F4EC" xlink:href="#path-5"></use>
                    </g>
                    <path d="M61.1033079,29.75 C60.0077085,29.7485603 56.848218,29.745321 53.1219081,29.745321 L11.8430254,29.745321 C10.7925313,29.745321 9.78761362,29.745681 8.86077634,29.7460409 L2.99985466,29.7455648 C1.34308068,29.7454302 7.10542736e-15,28.402335 7.10542736e-15,26.7458371 L7.10542736e-15,18.9994839 C7.10542736e-15,17.3429147 1.34828267,16 3.00738502,16 L62.992615,16 C64.6535479,16 66,17.3434432 66,19.0005049 L66,26.7494951 C66,28.4066282 64.6619574,29.75 62.9964969,29.75 L61.1033079,29.75 Z" id="Path" fill="#D33B2C"></path>
                    <path d="M33.329077,29.75 C32.7314774,29.7485603 31.0081189,29.745321 28.9755863,29.745321 L6.45983206,29.745321 C5.88683528,29.745321 5.33869834,29.745681 4.83315073,29.7460409 L3.00594368,29.7457687 C1.34580682,29.7455215 7.10542736e-15,28.402335 7.10542736e-15,26.7458371 L7.10542736e-15,18.9994839 C7.10542736e-15,17.3429147 1.34553934,16 3.00741988,16 L36,16 L36,29.75 L33.329077,29.75 Z" id="Path" fill="#DB4233"></path>
                    <polygon id="Fill-3" fill="#4CBFE3" points="26.546913 8.56952061 25.1742137 11.1493649 21.0457374 8.95272366 22.4184366 6.37287939"></polygon>
                    <polyline id="Fill-3" fill="#4CBFE3" points="20.0612938 11.0871651 24.1897701 13.2838063 22.8170709 15.8636506 18.6885945 13.6670094 20.0612938 11.0871651"></polyline>
                </g>
            </g>
        </g>
    </g>
</svg>