<?xml version="1.0" encoding="UTF-8"?>
<svg width="120px" height="120px" viewBox="0 0 120 120" version="1.1" xmlns="http://www.w3.org/2000/svg" xmlns:xlink="http://www.w3.org/1999/xlink">
    <!-- Generator: Sketch 40.3 (33839) - http://www.bohemiancoding.com/sketch -->
    <title>顺风</title>
    <desc>Created with Sketch.</desc>
    <defs>
        <rect id="path-1" x="44" y="73" width="13" height="7" rx="1"></rect>
        <mask id="mask-2" maskContentUnits="userSpaceOnUse" maskUnits="objectBoundingBox" x="0" y="0" width="13" height="7" fill="white">
            <use xlink:href="#path-1"></use>
        </mask>
        <rect id="path-3" x="65" y="73" width="13" height="7" rx="1"></rect>
        <mask id="mask-4" maskContentUnits="userSpaceOnUse" maskUnits="objectBoundingBox" x="0" y="0" width="13" height="7" fill="white">
            <use xlink:href="#path-3"></use>
        </mask>
    </defs>
    <g id="Page-1" stroke="none" stroke-width="1" fill="none" fill-rule="evenodd">
        <g id="Group-6" transform="translate(-53.000000, -522.000000)">
            <g id="顺风同行" transform="translate(0.000000, 491.000000)">
                <g id="顺风" transform="translate(53.000000, 31.000000)">
                    <circle id="Oval-6" fill="#19BA9A" cx="60" cy="60" r="60"></circle>
                    <rect id="Rectangle-14" fill="#E0443D" x="53" y="27" width="19" height="4"></rect>
                    <rect id="Rectangle-16" fill="#FE5F1D" x="34" y="43" width="5" height="10"></rect>
                    <rect id="Rectangle-16" fill="#FE5F1D" x="82" y="43" width="5" height="10"></rect>
                    <rect id="Rectangle-17" fill="#484846" x="46" y="83" width="7" height="11" rx="3.5"></rect>
                    <rect id="Rectangle-17-Copy" fill="#484846" x="69" y="83" width="7" height="11" rx="3.5"></rect>
                    <rect id="Rectangle-15" fill="#E0443D" x="37" y="29" width="47" height="56" rx="7"></rect>
                    <rect id="Rectangle-18" fill="#FEFEFE" x="41" y="37" width="39" height="32"></rect>
                    <rect id="Rectangle-18" fill="#EAF3F8" x="41" y="37" width="19" height="32"></rect>
                    <rect id="Rectangle-19" fill="#F2635B" transform="translate(52.000000, 55.000000) rotate(26.000000) translate(-52.000000, -55.000000) " x="43" y="54" width="18" height="2" rx="1"></rect>
                    <use id="Rectangle-20" stroke="#FEFEFF" mask="url(#mask-2)" stroke-width="2" fill="#F4B858" xlink:href="#path-1"></use>
                    <use id="Rectangle-20" stroke="#FEFEFF" mask="url(#mask-4)" stroke-width="2" fill="#F4B858" xlink:href="#path-3"></use>
                    <rect id="Rectangle-19" fill="#F2635B" transform="translate(55.000000, 61.000000) rotate(53.000000) translate(-55.000000, -61.000000) " x="45" y="60" width="20" height="2" rx="1"></rect>
                </g>
            </g>
        </g>
    </g>
</svg>