<?xml version="1.0" encoding="UTF-8"?>
<svg width="20px" height="19px" viewBox="0 0 20 19" version="1.1" xmlns="http://www.w3.org/2000/svg" xmlns:xlink="http://www.w3.org/1999/xlink">
    <!-- Generator: Sketch 40.3 (33839) - http://www.bohemiancoding.com/sketch -->
    <title>iconfont-bianji-2</title>
    <desc>Created with Sketch.</desc>
    <defs></defs>
    <g id="Page-1" stroke="none" stroke-width="1" fill="none" fill-rule="evenodd">
        <g id="本地—筛选" transform="translate(-339.000000, -33.000000)" fill="#515151">
            <g id="-">
                <g id="navbar">
                    <g id="icon_发布" transform="translate(338.000000, 32.000000)">
                        <g id="iconfont-bianji-2" transform="translate(1.000000, 1.000000)">
                            <g>
                                <path d="M19.9844055,8.4442617 L19.9844055,15.441886 C19.9844055,17.4581506 18.6869396,19 16.9902534,19 L3.01754386,19 C1.3208577,19 0.0233918129,17.4581506 0.0233918129,15.441886 L0.0233918129,3.58150585 C0.0233918129,1.56524123 1.3208577,0.0233918129 3.01754386,0.0233918129 L10.502924,0.0233918129 C10.8023392,0.0233918129 11.0019493,0.260599415 11.0019493,0.616410819 C11.0019493,0.972222222 10.8023392,1.20942982 10.502924,1.20942982 L3.01754386,1.20942982 C1.91968811,1.20942982 1.0214425,2.27686404 1.0214425,3.58150585 L1.0214425,15.441886 C1.0214425,16.7465278 1.91968811,17.813962 3.01754386,17.813962 L16.9902534,17.813962 C18.0881092,17.813962 18.9863548,16.7465278 18.9863548,15.441886 L18.9863548,8.32565789 C18.9863548,7.96984649 19.1859649,7.73263889 19.4853801,7.73263889 C19.7847953,7.73263889 19.9844055,7.96984649 19.9844055,8.32565789 L19.9844055,8.4442617 L19.9844055,8.4442617 Z" id="Fill-2"></path>
                                <path d="M8.10760234,11.1017544 L7.00974659,11.4011696 L7.40896686,10.3033138 L16.9902534,0.821832359 C17.1898635,0.622222222 17.4892788,0.622222222 17.6888889,0.821832359 C17.888499,1.0214425 17.888499,1.3208577 17.6888889,1.52046784 L8.10760234,11.1017544 L8.10760234,11.1017544 Z" id="Path"></path>
                            </g>
                        </g>
                    </g>
                </g>
            </g>
        </g>
    </g>
</svg>