<?xml version="1.0" encoding="UTF-8"?>
<svg width="120px" height="120px" viewBox="0 0 120 120" version="1.1" xmlns="http://www.w3.org/2000/svg" xmlns:xlink="http://www.w3.org/1999/xlink">
    <!-- Generator: Sketch 40.3 (33839) - http://www.bohemiancoding.com/sketch -->
    <title>二手车</title>
    <desc>Created with Sketch.</desc>
    <defs></defs>
    <g id="Page-1" stroke="none" stroke-width="1" fill="none" fill-rule="evenodd">
        <g id="Group-6" transform="translate(-55.000000, -278.000000)">
            <g id="二手汽车" transform="translate(0.000000, 250.000000)">
                <g id="二手车" transform="translate(55.000000, 28.000000)">
                    <circle id="Oval-6-Copy-4" fill="#F0EDE9" cx="60" cy="60" r="60"></circle>
                    <g id="Group-11" transform="translate(27.000000, 34.000000)">
                        <path d="M57.9252982,15.411595 C57.6321886,15.411595 57.3625132,15.4989237 57.1207573,15.6294591 L54.3418918,7.25981692 C53.4527684,2.49793065 50.1019639,0.20184466 45.9836006,0.20184466 L19.8797309,0.20184466 C15.1523551,0.20184466 12.2830485,3.28608599 11.5213481,7.2551484 L8.73506796,15.6532594 C8.48159501,15.5063384 8.19397781,15.411595 7.8815534,15.411595 L1.71627462,15.411595 C0.769023578,15.411595 0,16.179154 0,17.1291512 L0,18.6184078 C0,19.5656588 0.769023578,20.3346824 1.71627462,20.3346824 L4.05044105,20.7334286 C3.31363939,22.1738946 2.89292372,23.8218807 2.89292372,25.7393592 L2.02888211,35.6187628 C2.02888211,35.9049154 2.04984466,36.1966519 2.085362,36.4902191 C2.05268239,36.669362 2.02888211,36.8562857 2.02888211,37.0475118 L2.02888211,48.932638 C2.02888211,50.6236477 3.4014258,51.9944521 5.09243551,51.9944521 L9.768,51.9944521 C11.4603828,51.9944521 12.8311872,50.6237393 12.8311872,48.932638 L12.8311872,45.1123273 L53.0302219,45.1123273 L53.0302219,48.932638 C53.0302219,50.6235562 54.4013925,51.9944521 56.0937753,51.9944521 L60.7694313,51.9944521 C62.4604411,51.9944521 63.8327101,50.6236477 63.8327101,48.932638 L63.8327101,37.0474202 C63.8327101,36.8559196 63.8091845,36.6692705 63.7761387,36.4901276 C63.8101914,36.1965603 63.8327101,35.9048239 63.8327101,35.6186713 L62.968577,25.7396338 C62.968577,23.8172122 62.5463967,22.1679445 61.8068488,20.72281 L64.0891123,20.3345908 C65.0377365,20.3345908 65.805387,19.5655673 65.805387,18.6183162 L65.805387,17.1289681 C65.8056616,16.1790624 65.0380111,15.4115035 64.089387,15.4115035 L57.9252982,15.411595 Z" id="汽车-5" fill="#FC637F"></path>
                        <path d="M50.849018,39.4809071 C48.286552,39.4809071 46.2088793,37.404516 46.2088793,34.8421415 C46.2088793,32.279767 48.2866436,30.2036505 50.849018,30.2036505 C53.411484,30.2036505 55.4874175,32.2796755 55.4874175,34.8421415 C55.4878752,37.404516 53.411484,39.4809071 50.849018,39.4809071 L50.849018,39.4809071 Z" id="Path" stroke="#341F19" fill="#FFEA9F"></path>
                        <path d="M39.5394924,37.4385687 L26.5264161,37.4385687 C25.7648072,37.4385687 25.1464577,36.8219584 25.1464577,36.0588849 L25.1464577,32.1819112 C25.1464577,31.4203024 25.7643495,30.8036921 26.5264161,30.8036921 L39.5395839,30.8036921 C40.3015589,30.8036921 40.9198169,31.4202108 40.9198169,32.1819112 L40.9198169,36.0588849 C40.9194508,36.8219584 40.3015589,37.4385687 39.5394924,37.4385687 Z" id="Path" fill="#341F19"></path>
                        <path d="M15.0127573,39.4809071 C12.4502913,39.4809071 10.3743578,37.404516 10.3743578,34.8421415 C10.3743578,32.279767 12.4502913,30.2036505 15.0127573,30.2036505 C17.5752233,30.2036505 19.6515229,32.2796755 19.6515229,34.8421415 C19.6515229,37.404516 17.5752233,39.4809071 15.0127573,39.4809071 L15.0127573,39.4809071 Z" id="Path" stroke="#341F19" fill="#FFEA9F"></path>
                        <path d="M15.6232344,8.22134813 L15.6517032,8.09410818 C15.8546463,6.99581692 16.3081331,6.80010541 16.9779279,5.95208322 L48.9237587,5.95208322 C49.5995035,6.82353953 50.0207684,7.04479057 50.2072344,8.08220804 L52.2804216,13.652846 L53.0393759,16.6788682 C52.8670985,18.8930264 50.2068682,20.641889 47.9930763,20.641889 L17.8702552,20.641889 C15.6546325,20.641889 12.9944022,18.8931179 12.822491,16.6788682 L13.5829098,13.652846 L15.6232344,8.22134813 Z" id="Path" fill="#FFFFFD"></path>
                        <path d="M15.7252718,8.22134813 L15.7547777,8.09410818 C15.9651145,6.99581692 16.4351229,6.80010541 17.1293198,5.95208322 L32.6196607,5.95208322 C33.3200244,6.82353953 33.6196607,20.641889 33.6196607,20.641889 L18.0541566,20.641889 C15.7578137,20.641889 13.0006653,18.8931179 12.822491,16.6788682 L13.6106136,13.652846 L15.7252718,8.22134813 Z" id="Path" fill="#F4F4F4"></path>
                    </g>
                </g>
            </g>
        </g>
    </g>
</svg>