<?xml version="1.0" encoding="UTF-8"?>
<svg width="15px" height="12px" viewBox="0 0 15 12" version="1.1" xmlns="http://www.w3.org/2000/svg" xmlns:xlink="http://www.w3.org/1999/xlink">
    <!-- Generator: Sketch 40.3 (33839) - http://www.bohemiancoding.com/sketch -->
    <title>Imported Layers Copy</title>
    <desc>Created with Sketch.</desc>
    <defs></defs>
    <g id="Page-1" stroke="none" stroke-width="1" fill="none" fill-rule="evenodd">
        <g id="详情" transform="translate(-16.000000, -38.000000)" fill="#515151">
            <g id="Group-8" transform="translate(0.000000, 2.000000)">
                <g id="navbar">
                    <path d="M30.4601569,42.4810417 L17.8976569,42.4810417 L22.8069426,46.983375 C23.0115854,47.1892083 23.0115854,47.522875 22.8069426,47.727625 C22.6022997,47.935625 22.2712283,47.935625 22.0665854,47.727625 L16.1994426,42.348875 C16.1844426,42.3369583 16.163014,42.342375 16.1490854,42.3272083 C16.043014,42.2199583 15.9969426,42.0802083 16.0001569,41.9415417 C15.9969426,41.8017917 16.043014,41.663125 16.1490854,41.555875 C16.163014,41.5407083 16.185514,41.546125 16.200514,41.533125 L22.0665854,36.154375 C22.2712283,35.9485417 22.6022997,35.9485417 22.8069426,36.154375 C23.0115854,36.3612917 23.0115854,36.6949583 22.8069426,36.9007917 L17.8976569,41.4009583 L30.4601569,41.4009583 C30.7547997,41.4009583 30.9958711,41.643625 30.9958711,41.9415417 C30.9958711,42.2394583 30.7547997,42.4810417 30.4601569,42.4810417" id="Imported-Layers-Copy"></path>
                </g>
            </g>
        </g>
    </g>
</svg>