<?xml version="1.0" encoding="UTF-8"?>
<svg width="32px" height="28px" viewBox="0 0 32 28" version="1.1" xmlns="http://www.w3.org/2000/svg" xmlns:xlink="http://www.w3.org/1999/xlink">
    <!-- Generator: Sketch 40.3 (33839) - http://www.bohemiancoding.com/sketch -->
    <title>camera</title>
    <desc>Created with Sketch.</desc>
    <defs></defs>
    <g id="Page-1" stroke="none" stroke-width="1" fill="none" fill-rule="evenodd">
        <g id="注册I" transform="translate(-172.000000, -319.000000)" fill="#FFFFFF">
            <g id="Group-2" transform="translate(132.000000, 278.000000)">
                <g id="camera" transform="translate(40.000000, 41.000000)">
                    <path d="M30,28 L2,28 C0.894,28 0,27.104 0,26.002 L0,4 C0,2.896 0.894,2.002 2,2.002 L4.202,2.002 C4.616,0.842 5.698,0 7,0 L12,0 C13.302,0 14.382,0.842 14.798,2.002 L30,2.002 C31.104,2.002 32,2.896 32,4 L32,26.002 C32,27.104 31.104,28 30,28 L30,28 Z M12,2.002 L7,2.002 C6.448,2.002 6,2.45 6,3 C6,3.552 6.448,4 7,4 L12,4 C12.552,4 13,3.552 13,3 C13,2.45 12.552,2.002 12,2.002 L12,2.002 Z M30,5 C30,4.448 29.552,4 29,4 L14.798,4 C14.384,5.16 13.302,6.002 12,6.002 L7,6.002 C5.698,6.002 4.616,5.16 4.202,4 L3,4 C2.448,4 2,4.448 2,5 L2,25 C2,25.552 2.448,26.002 3,26.002 L29,26.002 C29.552,26.002 30,25.552 30,25 L30,5 L30,5 Z M16,24 C11.582,24 8,20.418 8,16 C8,11.582 11.582,8.002 16,8.002 C20.418,8.002 24,11.582 24,16 C24,20.418 20.418,24 16,24 L16,24 Z M16,10 C12.686,10 10,12.686 10,16 C10,19.314 12.686,22 16,22 C19.314,22 22,19.314 22,16 C22,12.686 19.314,10 16,10 L16,10 Z" id="Imported-Layers-Copy"></path>
                </g>
            </g>
        </g>
    </g>
</svg>