<?xml version="1.0" encoding="UTF-8"?>
<svg width="120px" height="120px" viewBox="0 0 120 120" version="1.1" xmlns="http://www.w3.org/2000/svg" xmlns:xlink="http://www.w3.org/1999/xlink">
    <!-- Generator: Sketch 40.3 (33839) - http://www.bohemiancoding.com/sketch -->
    <title>宠物花草</title>
    <desc>Created with Sketch.</desc>
    <defs>
        <path d="M7.38652336e-20,9.07582447 C-2.75142133e-19,0.243629431 4.0756712,-1.01343708 9.09257848,6.25260837 L12.5,11.1876168 L18.8121303,2.15337195 C20.7104854,-0.563651264 23.7836628,-0.570594524 25.6871008,2.15337195 L32,11.1876168 L35.4247853,7.29899231 C41.2653151,0.667444542 46,2.46157234 46,11.2903005 L46,15.2391047 C46,24.9509634 38.1573444,33.5530129 28.4895952,34.4517012 L22.2494062,35.0317726 L17.4900019,34.5595004 C7.8305406,33.6009992 7.01093121e-19,24.9488391 3.17789138e-19,15.2487128 L7.38652336e-20,9.07582447 Z" id="path-1"></path>
        <ellipse id="path-3" cx="3.5" cy="7.94805195" rx="3.5" ry="7.94805195"></ellipse>
        <ellipse id="path-5" cx="3.5" cy="7.94805195" rx="3.5" ry="7.94805195"></ellipse>
    </defs>
    <g id="Page-1" stroke="none" stroke-width="1" fill="none" fill-rule="evenodd">
        <g id="Group-6" transform="translate(-548.000000, -276.000000)">
            <g id="宠物花鸟" transform="translate(494.000000, 249.000000)">
                <g id="宠物花草" transform="translate(54.000000, 27.000000)">
                    <circle id="Oval-6-Copy" fill="#B7D468" cx="60" cy="60" r="60"></circle>
                    <path d="M76,37.451144 C75.2602081,37.7528876 74.4726674,38.2352615 73.6496085,38.902954 C73.4064412,32.8886388 69.8090944,32.0146114 65.0692896,37.2151528 L63.6637865,38.757279 L61.6871008,35.9284897 C59.7836628,33.2045232 56.7104854,33.2114665 54.8121303,35.9284897 L53.3952435,37.9564109 L50.4497876,33.4690977 C49.2289742,31.6092253 47.2643819,31.6177207 46.0492929,33.4690977 L43.2676565,37.707353 C42.0776919,36.4109027 40.9718766,35.6455701 40,35.3962967 L40,42.6861354 L43.2676565,37.707353 C43.8573203,38.3497837 44.4676471,39.1226307 45.0925785,40.0277261 L48.5,44.9627345 L53.3952435,37.9564109 L58,44.9716185 L63.6637865,38.757279 L68,44.9627345 L71.4247853,41.0741101 C72.1879742,40.2075579 72.9322808,39.4848739 73.6496085,38.902954 C73.6736508,39.4975998 73.664904,40.1424952 73.6212303,40.836737 L73.1302295,48.6417368 C72.9112198,52.1231377 71.7189458,55.4650877 69.8356838,58.3766251 L76,58.3766234 L76,37.451144 Z" id="Combined-Shape" fill="#CE1B33"></path>
                    <rect id="Rectangle-24" fill="#70554A" x="56" y="62.7922078" width="4" height="36.2077922" rx="2"></rect>
                    <g id="Rectangle-25" transform="translate(36.000000, 32.000000)">
                        <mask id="mask-2" fill="white">
                            <use xlink:href="#path-1"></use>
                        </mask>
                        <use id="Mask" fill="#FC3A3B" xlink:href="#path-1"></use>
                        <rect fill="#FB5454" mask="url(#mask-2)" x="-2" y="-5.41558442" width="25" height="41.5064935"></rect>
                    </g>
                    <g id="Combined-Shape" transform="translate(47.499636, 87.686582) rotate(-40.000000) translate(-47.499636, -87.686582) translate(43.999636, 79.686582)">
                        <mask id="mask-4" fill="white">
                            <use xlink:href="#path-3"></use>
                        </mask>
                        <use id="Mask" fill="#76A543" xlink:href="#path-3"></use>
                        <path d="M3.65464521,15.4534372 C3.29313883,15.7402123 2.90458625,15.8961039 2.5,15.8961039 C0.567003376,15.8961039 -1,12.3376398 -1,7.94805195 C-1,3.55846407 0.567003376,7.10542736e-14 2.5,7.10542736e-14 C2.90458625,7.10542736e-14 3.29313883,0.155891573 3.65464521,0.442666693 C2.66130251,2.00087994 2,4.7796056 2,7.94805195 C2,11.1164983 2.66130251,13.895224 3.65464521,15.4534372 Z" fill="#668639" mask="url(#mask-4)"></path>
                    </g>
                    <g id="Combined-Shape" transform="translate(64.432852, 77.089180) scale(-1, 1) rotate(-40.000000) translate(-64.432852, -77.089180) translate(60.932852, 69.089180)">
                        <mask id="mask-6" fill="white">
                            <use xlink:href="#path-5"></use>
                        </mask>
                        <use id="Mask" fill="#76A543" xlink:href="#path-5"></use>
                        <path d="M3.65464521,15.4534372 C3.29313883,15.7402123 2.90458625,15.8961039 2.5,15.8961039 C0.567003376,15.8961039 -1,12.3376398 -1,7.94805195 C-1,3.55846407 0.567003376,7.10542736e-14 2.5,7.10542736e-14 C2.90458625,7.10542736e-14 3.29313883,0.155891573 3.65464521,0.442666693 C2.66130251,2.00087994 2,4.7796056 2,7.94805195 C2,11.1164983 2.66130251,13.895224 3.65464521,15.4534372 Z" fill="#668639" mask="url(#mask-6)"></path>
                    </g>
                </g>
            </g>
        </g>
    </g>
</svg>