<?xml version="1.0" encoding="UTF-8"?>
<svg width="51px" height="53px" viewBox="0 0 51 53" version="1.1" xmlns="http://www.w3.org/2000/svg" xmlns:xlink="http://www.w3.org/1999/xlink">
    <!-- Generator: Sketch 40.3 (33839) - http://www.bohemiancoding.com/sketch -->
    <title>同城活动</title>
    <desc>Created with Sketch.</desc>
    <defs></defs>
    <g id="Page-1" stroke="none" stroke-width="1" fill="none" fill-rule="evenodd">
        <g id="同城活动" transform="translate(1.333333, 1.000000)">
            <path d="M25.8548601,17.4014853 C25.0758084,17.4014853 24.341551,17.2618951 23.6727021,16.9866378 C23.0032825,16.7113091 22.4125385,16.3207133 21.9170182,15.825621 C21.425849,15.3346657 21.0285483,14.7495566 20.735958,14.0864853 C20.4388028,13.4133566 20.2880853,12.6915105 20.2880853,11.9411329 C20.2880853,11.1908266 20.4388028,10.4690517 20.7361007,9.79578042 C21.0284769,9.13285175 21.425849,8.54781399 21.9168755,8.05685874 C22.4126098,7.56155245 23.0033538,7.17095664 23.6729161,6.89562797 C24.3416224,6.62044196 25.0758084,6.48085175 25.8549315,6.48085175 C26.6317007,6.48085175 27.372235,6.61951469 28.0561343,6.89313147 C28.7452406,7.16846014 29.3468979,7.55998322 29.8439874,8.05685874 C30.3353706,8.54824196 30.7326713,9.13327972 31.0249762,9.79599441 C31.3220601,10.4689804 31.4727776,11.1907552 31.4727776,11.9411329 C31.4727776,12.6915818 31.3220601,13.413428 31.0248336,14.086628 C30.7326,14.7491287 30.3352993,15.3341664 29.8440587,15.825407 C29.3468979,16.3222825 28.7453119,16.7138769 28.055849,16.9893483 C27.372235,17.2628224 26.6316294,17.4014853 25.8548601,17.4014853 L25.8548601,17.4014853 Z" id="Path" stroke="#43ABF3" fill="#D6F0FD"></path>
            <path d="M25.8548601,32.9203217 C25.5359497,32.9203217 25.0591175,32.8233147 24.5932699,32.3633161 C23.1656979,31.0405259 21.8242909,29.6288601 20.6059259,28.167407 C19.3789301,26.6953259 18.2774014,25.132586 17.3320112,23.5222699 C16.3826266,21.9048923 15.5890238,20.2019203 14.9733147,18.4606448 C14.3533972,16.7065301 13.9493203,14.8658937 13.7724252,12.9899497 L13.7692867,12.9570671 L13.7692867,12.9241846 C13.7692867,12.7781748 13.7620112,12.6389413 13.7476741,12.5102643 C13.7276308,12.3303734 13.7175021,12.1388559 13.7175021,11.9411329 C13.7175021,10.2968643 14.0427608,8.73819021 14.6842196,7.30847832 C15.3211846,5.88939441 16.197814,4.62552168 17.289642,3.55195385 C18.3826825,2.47724476 19.6743021,1.61901818 21.1286224,1.00088392 C22.5897189,0.380253147 24.1797776,0.065551049 25.8548601,0.065551049 C27.5296573,0.065551049 29.1194308,0.380253147 30.5801706,1.00081259 C32.0349902,1.61894685 33.3271091,2.47717343 34.420649,3.55173986 C35.5131902,4.62545035 36.3900336,5.88939441 37.0269273,7.30833566 C37.6684573,8.7379049 37.9937161,10.296579 37.9937161,11.9411329 L37.9937161,12.5619776 C37.9937161,12.8005007 37.9741007,13.0418056 37.9355119,13.2795441 C37.7226671,15.1477846 37.3017566,16.961958 36.6846923,18.6719203 C36.0681986,20.3801706 35.2736685,22.0488336 34.3231427,23.6316881 C33.3772531,25.2069105 32.2755818,26.7426168 31.0487287,28.1963664 C29.8325748,29.6379189 28.5107119,31.038814 27.1200168,32.3598923 C26.6530993,32.8228154 26.1746979,32.9203217 25.8548601,32.9203217 L25.8548601,32.9203217 Z" id="Path" stroke="#51B1F4"></path>
            <path d="M18.6099424,47.9251975 C18.0739081,47.7928552 17.6393664,47.228964 17.6393664,46.6939775 L17.6393664,31.6062155 C17.6393664,31.0585738 17.9346958,30.9404619 18.3064825,31.3506577 L18.859372,31.9606657 C19.7520503,32.9457147 20.6325315,33.849449 21.4761357,34.6469035 C22.3356462,35.4589091 23.1139133,36.1818252 23.7893958,36.7955371 C24.4230797,37.3556811 25.0343664,37.8730993 25.6129133,38.3390895 C25.8673427,38.1236056 26.1425287,37.8876503 26.4356895,37.6335776 C26.8326336,37.2979049 27.2925608,36.8685776 27.8093371,36.3519441 C28.3450867,35.8164797 28.9657888,35.2120406 29.6542531,34.5552462 L30.1087906,34.1216494 C30.5118895,33.7371215 30.8386657,33.8760606 30.8386657,34.4174908 L30.8386657,50.9443636 L18.6099424,47.9251975 Z" id="Fill-3" stroke="#49ACF0"></path>
            <path d="M34.2487469,30.6518443 C34.2487469,30.1031748 34.4541734,29.4531063 34.4541734,29.4531063 L34.4541734,29.4531063 C34.6405552,29.2669385 34.8205888,29.0713552 34.9892811,28.8719203 C35.1801566,28.6465217 35.3824448,28.4261874 35.5908671,28.2167664 C36.2134238,27.530228 36.8001734,26.6957538 37.3349958,25.7365259 C37.8828713,24.7545441 38.3817441,23.6916042 38.8179189,22.5772364 C39.2587301,21.4508853 39.6561021,20.3084853 39.998979,19.1817776 C40.3454937,18.0433007 40.6542042,16.9673077 40.9164084,15.9835427 L40.9164084,15.9835427 C40.9764838,15.7580135 41.4555206,15.4767036 42.0030826,15.351394 L47.6464292,14.0599137 C48.1865074,13.9363168 48.6243273,14.2853906 48.6243273,14.8410245 L48.6243273,46.408549 C48.6243273,46.9635414 48.1940947,47.5161491 47.6587828,47.6439291 L34.2487469,50.8449315 L34.2487469,30.6518443 Z" id="Path" stroke="#49ACF0"></path>
            <path d="M0.0259636364,18.3491317 C0.0259636364,17.7959006 0.456202251,17.2443802 0.996800171,17.1149122 L6.90378635,15.700246 L9.23937079,15.140896 C9.77814494,15.0118648 10.3257519,15.3318632 10.388379,15.5717622 L10.388379,15.5717622 C10.5850322,16.3255636 10.811358,17.1636755 11.0610084,18.0629874 C11.3070923,18.9487469 11.5893399,19.8618965 11.8999049,20.776972 C12.2103273,21.6915483 12.5650448,22.6071231 12.954214,23.4982322 C13.3428126,24.387986 13.7680741,25.2299497 14.218158,26.0007986 L14.218158,26.0007986 C14.2709457,26.0912466 14.3137385,26.6076613 14.3137385,27.1593277 L14.3137385,46.3841702 C14.3137385,46.9335601 13.8704663,47.4856301 13.3429145,47.6126187 L0.996787558,50.5844932 C0.460616311,50.7135566 0.0259636364,50.3703402 0.0259636364,49.8164697 L0.0259636364,18.3491317 Z" id="Path" stroke="#49ACF0"></path>
            <path id="Fill-5" fill="#000000"></path>
        </g>
    </g>
</svg>