<?xml version="1.0" standalone="no"?><!DOCTYPE svg PUBLIC "-//W3C//DTD SVG 1.1//EN" "http://www.w3.org/Graphics/SVG/1.1/DTD/svg11.dtd"><svg t="1483588213401" class="icon" style="" viewBox="0 0 1024 1024" version="1.1" xmlns="http://www.w3.org/2000/svg" p-id="1428" xmlns:xlink="http://www.w3.org/1999/xlink" width="200" height="200"><defs><style type="text/css"></style></defs><path d="M462.575846 782.4015l24.02723-24.02416L869.532441 375.464347c16.58984-16.58984 16.58984-43.479257 0-60.066027L704.347285 150.217257c-16.58677-16.585747-43.479257-16.585747-60.066027 0L261.346775 533.131273l-24.023136 24.026206-17.652032 17.647939c-4.276397 4.276397-7.438413 9.241478-9.508561 14.530948-0.10847 0.276293-0.210801 0.550539-0.313132 0.826831-0.733711 1.994424-1.311879 4.02978-1.734504 6.091742l-66.642816 248.860904c-2.577708 9.618055 0.477884 19.415189 7.133468 25.900903 6.489808 6.659677 16.281825 9.711176 25.900903 7.133468l249.489214-66.655096c1.382487-0.299829 2.752694-0.673335 4.105504-1.115404 1.363044-0.405229 2.671852-0.903579 3.920286-1.49505 4.680603-2.064009 9.070586-5.002944 12.904914-8.836249L462.575846 782.4015 462.575846 782.4015zM674.312224 195.265242 824.480362 345.43031l-375.420345 375.406019L298.891879 570.672284 674.312224 195.265242 674.312224 195.265242zM204.443787 815.20051l20.12127-73.197092 53.109592 53.108568L204.443787 815.20051 204.443787 815.20051zM315.384505 784.768407l-80.46052-80.456427 26.408463-96.078219 13.534248-13.534248 150.167115 150.159952-13.534248 13.537318L315.384505 784.768407 315.384505 784.768407zM315.384505 784.768407" p-id="1429" fill="#515151"></path></svg>